<svg width="130" height="41" viewBox="0 0 130 41" xmlns="http://www.w3.org/2000/svg"><title>编组</title><g fill="none" fill-rule="evenodd"><path d="M108.438 22.2c-.258 8.497-.603 11.641-1.162 12.449-.344.552-.688.679-1.162.679-.517 0-1.162 0-1.937-.085 1.55-4.036 2.411-8.54 2.84-13.044h1.421zm21.46-6.44l-3.726-2.228-.86.297h-6.113c.302-.85.603-1.7.861-2.591h9.838V5.417h-8.418c.333-1.958.591-4.131.591-4.131L116.1.276c-.344 3.314-.947 6.882-1.808 9.814V6.904h-4.476V.78L103.79.275v6.629h-4.648v5.82h2.754c-.172 8.54-.603 17.803-4.864 23.879 1.593.934 3.357 2.591 4.347 3.993 1.034-1.487 1.895-3.144 2.583-4.843.688 1.445 1.12 3.441 1.205 4.928 4.692.128 5.861-.547 7.06-2.251 1.637-2.331 1.936-19.885 1.936-19.885l.086-1.908-6.8-.004c.086-1.317.128-2.634.172-3.908h5.767c-.387.85-.731 1.614-1.162 2.294 1.033.51 2.497 1.36 3.659 2.167v1.954h5.986l-.882 1.346-1.743.003v3.962h-4.407v5.48h4.407v4.632c0 .468-.173.553-.732.595-.517 0-2.208 0-3.671-.085.731 1.615 1.42 3.952 1.592 5.608 7.36 0 8.621-1.189 8.621-5.99v-4.76h4.842v-5.48h-4.842v-1.02l4.842-7.67z" fill="#828282"/><path d="M99.549 16.02c-1.463-1.275-4.519-2.762-6.8-3.611l-3.444 4.546c2.324 1.02 5.251 2.762 6.586 4.036l3.658-4.97zM100.564 4.562C99.057 3.245 96 1.673 93.677.78L90.19 5.284c2.324 1.063 5.337 2.89 6.671 4.207l3.703-4.93zM99.549 26.278l-5.08-3.059c-1.548 5.183-3.613 10.58-5.12 14.02l5.578 2.859s.265-.63.49-1.243c1.291-3.357 2.798-7.903 4.132-12.577M64.096 10.858c-1.43-.073-6.664-.41-6.664-.41-.975 3.41-3.816 6.097-11.764 6.844 1.162 1.192 2.67 3.49 3.187 4.979 8.99-1.38 13.506-5.979 15.241-11.413M86.26 15.819h-9.94c-1.379 0-1.636-.127-1.636-1.319l-.006-3.66-6.197-.318v4.77c0 4.638 1.293 6.17 6.892 6.17h10.155l.732-5.643zM47.19 9.37h37.548V4.318H47.19z" fill="#828282"/><path fill="#828282" d="M69.516 5.328h-7.104V.275l7.104.506zM47.19 13.412h6.088V8.36H47.19zM78.649 13.412h6.09V8.36h-6.09zM47.19 23.037v5.701h30.657c-.523 5.11-2.319 5.604-3.645 5.604-1.165 0-3.54 0-6.129-.213 1.252 1.834 2.126 4.679 2.256 6.555 8.264 0 13.953-1.099 14.41-17.647h-37.55z"/><path d="M60.332 18.617c0 11.974-6.174 15.646-14.665 16.921 1.25 1.235 2.956 3.584 3.516 5.158 10.726-2.122 17.897-7.713 18.4-21.708" fill="#828282"/><path d="M20.297 32.69c-6.77 0-12.256-5.464-12.256-12.204S13.528 8.282 20.297 8.282c6.768 0 12.255 5.464 12.255 12.204S27.065 32.69 20.297 32.69m0-32.415C9.087.275 0 9.324 0 20.485c0 11.163 9.087 20.211 20.297 20.211 11.209 0 20.296-9.048 20.296-20.21S31.506.276 20.297.276" fill="#007852"/><path d="M39.34 39.981L20.741 29.37a.39.39 0 0 1-.082-.615l7.941-7.907a.393.393 0 0 1 .617.082l10.658 18.52c.199.345-.188.73-.535.532" fill="#AC162C"/></g></svg>